<svg width="29" height="29" viewBox="0 0 29 29" fill="none" xmlns="http://www.w3.org/2000/svg">
<g clip-path="url(#clip0_29_131)">
<path fill-rule="evenodd" clip-rule="evenodd" d="M26.2621 23.285L28.4611 25.146L26.5001 26.948L24.4861 28.782L22.7101 26.245L20.8751 24.235L17.7211 27.146L15.6981 25.69L17.5591 23.183L2.76413 8.227L2.73013 1.47L2.88213 0.742004L9.55913 2.161L23.3011 17.845L25.8901 16.227L27.2651 17.926L24.1911 21.161L26.2621 23.285ZM22.3551 12.335L16.4901 5.738L19.6251 2.161L26.3011 0.742004L27.1101 1.47L26.4191 8.227L22.3551 12.335ZM3.29413 16.227L5.88213 17.845L7.91013 16.465L12.8461 21.948L11.6251 23.183L13.4851 25.69L11.4631 27.146L8.30813 24.235L6.72713 26.16L4.61313 28.867L2.68313 26.948L0.807129 25.146L3.34413 22.947L4.99213 21.161L1.91913 17.926L3.29413 16.227Z" fill="#000000"/>
</g>
<defs>
<clipPath id="clip0_29_131">
<rect width="29" height="29" fill="white"/>
</clipPath>
</defs>
</svg>
