<svg width="28" height="28" viewBox="0 0 28 28" fill="none" xmlns="http://www.w3.org/2000/svg">
<g clip-path="url(#clip0_29_135)">
<path fill-rule="evenodd" clip-rule="evenodd" d="M20.215 16.632L21.236 17.149L21.773 20.144L25.264 23.112L25.84 24.286L25.805 25.55L23.913 27.989L16.975 26.454L13.912 22.299L11.384 19.242L7.245 17.151L8.732 12.639L10.96 11.76L17.145 1.94L27.989 7.216L20.215 16.632ZM4.505 2.402L6.711 0L12.657 4.36L11.26 6.439L4.505 2.402ZM8.545 10.804L1.71 8.766L2.717 5.218L9.55 8.271L8.545 10.804ZM6.1 15.531L0 14.706L0.577 11.488L6.915 12.891L6.1 15.531Z" fill="#000000"/>
</g>
<defs>
<clipPath id="clip0_29_135">
<rect width="28" height="28" fill="white"/>
</clipPath>
</defs>
</svg>
