<svg width="28" height="28" viewBox="0 0 28 28" fill="none" xmlns="http://www.w3.org/2000/svg">
<g clip-path="url(#clip0_29_137)">
<path fill-rule="evenodd" clip-rule="evenodd" d="M26.5291 15.48L17.2751 15.193L22.7861 20.924L21.8501 24.75L18.3151 24.744L15.2991 26.367L11.8681 25.221L11.6601 16.817L5.62914 20.64L2.40614 19.587L1.26214 15.48L0.140137 11.946L1.88614 9.65399L8.95614 10.514L4.90114 5.45199L5.52514 1.91799L9.89214 1.44099L13.5321 0.799988L16.8591 1.82299L16.3391 9.17599L22.5801 4.97399L25.7301 5.45199L26.3211 10.36L27.9851 12.806L26.5291 15.48ZM10.3081 20.637L7.60514 27.991H2.82214L1.57414 24.457L9.26814 19.778L10.3081 20.637Z" fill="#000000"/>
</g>
<defs>
<clipPath id="clip0_29_137">
<rect width="28" height="28" fill="white"/>
</clipPath>
</defs>
</svg>
