<svg width="103" height="85" viewBox="0 0 103 85" fill="none" xmlns="http://www.w3.org/2000/svg">
<path d="M96.1797 41.9142H84.7377C84.7377 18.7651 65.7687 0 42.3681 0C19.2569 0 0.467278 18.3057 0.00747762 41.0583C-0.468322 64.577 21.8367 85 45.6143 85H48.6051C69.568 85 97.6647 68.7667 102.055 48.9874C102.866 45.3413 99.9537 41.9142 96.1797 41.9142ZM25.3646 42.9454C25.3646 46.0411 22.8052 48.5729 19.6759 48.5729C16.5466 48.5729 13.9873 46.0399 13.9873 42.9454V33.8414C13.9873 30.7457 16.5466 28.2139 19.6759 28.2139C22.8052 28.2139 25.3646 30.7457 25.3646 33.8414V42.9454ZM45.1181 42.9454C45.1181 46.0411 42.5588 48.5729 39.4295 48.5729C36.3002 48.5729 33.7408 46.0399 33.7408 42.9454V33.8414C33.7408 30.7457 36.3013 28.2139 39.4295 28.2139C42.5588 28.2139 45.1181 30.7457 45.1181 33.8414V42.9454Z" fill="black"/>
</svg>
