<svg width="28" height="28" viewBox="0 0 28 28" fill="none" xmlns="http://www.w3.org/2000/svg">
<g clip-path="url(#clip0_29_129)">
<path fill-rule="evenodd" clip-rule="evenodd" d="M16.51 28.1L10.113 27.581L0.26 15.929L0 11.653L11.41 0.100006L17.979 0.252006L28.6 12.324V17.103L16.51 28.1ZM21.35 11.653L19.276 7.21001L16.942 8.13301L18.152 12.659L16.41 13.836L15.645 10.899L14.694 7.21001L13.917 4.27601L11.41 4.86301L11.756 8.13301L12.447 12.659L12.879 15.258L11.151 16.18L10.286 13.33L9.249 10.144L7.607 10.48L6.483 16.683L10.2 20.54L13.96 23.892L19.16 19.701L22.474 16.432L21.35 11.653Z" fill="#000000"/>
</g>
<defs>
<clipPath id="clip0_29_129">
<rect width="28" height="28" fill="white"/>
</clipPath>
</defs>
</svg>
