<svg width="36" height="30" viewBox="0 0 36 30" fill="none" xmlns="http://www.w3.org/2000/svg">
<g clip-path="url(#clip0_104_28)">
<path fill-rule="evenodd" clip-rule="evenodd" d="M35.646 5.61998L31.617 24.403C31.494 24.979 30.926 25.346 30.35 25.223L23.478 23.749V7.58798C23.478 6.99798 23 6.52098 22.411 6.52098H20.984C21.211 6.12798 21.344 5.67298 21.344 5.18598C21.344 3.71298 20.149 2.51798 18.676 2.51798C17.202 2.51798 16.8 3.71298 16.8 5.18598C16.8 5.67298 16.14 6.12798 16.367 6.52098H13.623L14.776 1.14398C14.9 0.567977 15.467 0.200976 16.43 0.323976L34.826 4.35298C35.402 4.47698 35.769 5.43998 35.646 5.61998ZM25.346 19.861C25.346 21.334 26.54 22.529 28.14 22.529C29.487 22.529 30.682 21.334 30.682 19.861C30.682 18.387 29.487 17.193 28.14 17.193C26.54 17.193 25.346 18.387 25.346 19.861ZM30.682 5.18598C29.208 5.18598 28.14 6.38098 28.14 7.85498C28.14 9.32798 29.208 10.523 30.682 10.523C32.155 10.523 33.35 9.32798 33.35 7.85498C33.35 6.38098 32.155 5.18598 30.682 5.18598ZM21.344 9.72198V28.932C21.344 29.522 20.866 29.999 20.277 29.999H1.67C0.477 29.999 0 29.522 0 28.932V9.72198C0 9.13298 0.477 8.65498 1.67 8.65498H20.277C20.866 8.65498 21.344 9.13298 21.344 9.72198ZM4.535 10.79C3.62 10.79 1.867 11.984 1.867 13.458C1.867 14.931 3.62 16.126 4.535 16.126C6.9 16.126 7.203 14.931 7.203 13.458C7.203 11.984 6.9 10.79 4.535 10.79ZM10.671 16.926C9.198 16.926 8.4 18.121 8.4 19.594C8.4 21.68 9.198 22.262 10.671 22.262C12.145 22.262 13.34 21.68 13.34 19.594C13.34 18.121 12.145 16.926 10.671 16.926ZM16.808 23.62C15.334 23.62 14.14 24.257 14.14 25.73C14.14 27.204 15.334 28.399 16.808 28.399C18.282 28.399 19.476 27.204 19.476 25.73C19.476 24.257 18.282 23.62 16.808 23.62Z" fill="white"/>
</g>
<defs>
<clipPath id="clip0_104_28">
<rect width="36" height="30" fill="white"/>
</clipPath>
</defs>
</svg>
