<svg width="27" height="28" viewBox="0 0 27 28" fill="none" xmlns="http://www.w3.org/2000/svg">
<g clip-path="url(#clip0_285_24)">
<path fill-rule="evenodd" clip-rule="evenodd" d="M17.2099 14.7342L15.6019 14.2882L15.2439 11.9642L12.6159 11.7922L11.7559 13.3202L10.7049 15.8042L14.9079 20.4842L22.1669 19.4332L26.5609 12.8422L25.7969 5.96521L20.6599 0.903211L9.27293 0.616211L2.68193 6.15621L1.30393 14.8242L0.856934 18.5772L3.98493 23.4502L11.2779 27.7502L19.9709 27.8392L23.1969 26.3512V23.7602L20.2479 23.3132L12.6529 21.7052L7.91593 16.6112L8.22193 10.4552L10.6099 8.47921L12.9979 6.53821L19.2059 7.49321L20.6389 11.6962L17.2099 14.7342Z" fill="#00A8CC"/>
</g>
<defs>
<clipPath id="clip0_285_24">
<rect width="27" height="28" fill="white"/>
</clipPath>
</defs>
</svg>
