<svg width="2521" height="92" viewBox="0 0 2521 92" fill="none" xmlns="http://www.w3.org/2000/svg">
<path fill-rule="evenodd" clip-rule="evenodd" d="M1075 91.999V40H1446V91.999H1075Z" fill="black"/>
<path fill-rule="evenodd" clip-rule="evenodd" d="M0 0H2521L2511 39.999H8.999L0 0Z" fill="#00040D"/>
<path d="M1176.72 55.6H1181.2V74.16H1192.56V78H1176.72V55.6ZM1201.36 59.12L1199.6 60.72V72.88L1201.36 74.48H1208.08L1209.84 72.88V60.72L1208.08 59.12H1201.36ZM1199.28 55.28H1210.16L1214.32 59.12V74.48L1210.16 78.32H1199.28L1195.12 74.48V59.12L1199.28 55.28ZM1233.85 78L1231.61 72.08H1223.29L1221.05 78H1216.25L1224.57 55.6H1230.33L1238.65 78H1233.85ZM1227.45 60.88L1224.73 68.24H1230.17L1227.45 60.88ZM1241.38 78V55.6H1255.78L1259.94 59.44V74.16L1255.78 78H1241.38ZM1245.86 74.16H1253.7L1255.46 72.56V61.04L1253.7 59.44H1245.86V74.16ZM1275.79 78H1263.63V74.16H1267.47V59.44H1263.63V55.6H1275.79V59.44H1271.95V74.16H1275.79V78ZM1294.02 69.84V55.6H1298.5V78H1294.18L1284.58 63.76H1284.42V78H1279.94V55.6H1284.26L1293.86 69.84H1294.02ZM1318.18 72.56V68.72H1313.54V64.88H1322.66V74.16L1318.5 78H1307.62L1303.46 74.16V59.44L1307.62 55.6H1320.58V59.44H1309.7L1307.94 61.04V72.56L1309.7 74.16H1316.42L1318.18 72.56ZM1330.51 78H1326.35V73.68H1330.51V78ZM1338.2 78H1334.04V73.68H1338.2V78ZM1345.89 78H1341.73V73.68H1345.89V78Z" fill="#9EAFA5"/>
</svg>
