<?xml version="1.0" encoding="UTF-8"?>
<svg width="1200pt" height="1200pt" version="1.1" viewBox="0 0 1200 1200" xmlns="http://www.w3.org/2000/svg">
 <g>
  <path d="m750 115.91h27.273v54.547h-27.273z"/>
  <path d="m811.36 259.09h-34.09v-34.09h-27.273v47.727c0 7.5391 6.0938 13.637 13.637 13.637h47.727z"/>
  <path d="m861.37 259.09h50.004v27.273h-50.004z"/>
  <path d="m177.27 843.31c7.5273 0 13.637-6.1094 13.637-13.637v-109.09c0-7.5273-6.1094-13.637-13.637-13.637-7.5273 0-13.637 6.1094-13.637 13.637v109.09c0 7.543 6.1094 13.637 13.637 13.637z"/>
  <path d="m177.27 1061.5c7.5273 0 13.637-6.1094 13.637-13.637v-109.09c0-7.5273-6.1094-13.637-13.637-13.637-7.5273 0-13.637 6.1094-13.637 13.637v109.09c0 7.5391 6.1094 13.637 13.637 13.637z"/>
  <path d="m235.53 1172.7h-44.617v-15.777c0-7.5273-6.1094-13.637-13.637-13.637-7.5273 0-13.637 6.1094-13.637 13.637v29.414c0 7.5273 6.1094 13.637 13.637 13.637h58.254c7.5273 0 13.637-6.1094 13.637-13.637 0-7.5273-6.0977-13.637-13.637-13.637z"/>
  <path d="m648.9 27.273h101.1v34.09h27.273v-13.828c0.41016 0.039063 0.80469 0.23047 1.2148 0.23047 3.4922 0 6.9805-1.3359 9.6406-3.9961 5.332-5.332 5.332-13.965 0-19.281 0 0-0.3125-0.3125-0.88672-0.88672-0.55859-0.55859-1.3633-1.3633-2.3164-2.3164l-7.0469-7.0469c-1.2812-1.2812-2.5625-2.5625-3.7617-3.7617-1.1992-1.1992-2.3164-2.3164-3.2852-3.2852l-2.3164-2.3164c-0.42188-0.42188-0.69531-0.69531-0.81641-0.81641l-0.054688-0.054688c-2.5625-2.5586-6.0117-3.9922-9.6133-4.0039h-0.039062-109.09c-7.5273 0-13.637 6.1094-13.637 13.637-0.003906 7.5273 6.1055 13.637 13.633 13.637z"/>
  <path d="m335.26 13.637c0-7.5273-6.1094-13.637-13.637-13.637h-109.09c-7.5273 0-13.637 6.1094-13.637 13.637 0 7.5273 6.1094 13.637 13.637 13.637h109.09c7.5312 0 13.637-6.1094 13.637-13.637z"/>
  <path d="m177.27 188.77c7.5273 0 13.637-6.1094 13.637-13.637v-109.09c0-7.5273-6.1094-13.637-13.637-13.637-7.5273 0-13.637 6.1094-13.637 13.637v109.09c0 7.5391 6.1094 13.637 13.637 13.637z"/>
  <path d="m177.27 625.13c7.5273 0 13.637-6.1094 13.637-13.637v-109.09c0-7.5273-6.1094-13.637-13.637-13.637-7.5273 0-13.637 6.1094-13.637 13.637v109.09c0 7.5391 6.1094 13.637 13.637 13.637z"/>
  <path d="m177.27 406.95c7.5273 0 13.637-6.1094 13.637-13.637v-109.09c0-7.5273-6.1094-13.637-13.637-13.637-7.5273 0-13.637 6.1094-13.637 13.637v109.09c0 7.543 6.1094 13.637 13.637 13.637z"/>
  <path d="m1022.7 672.26c-7.5273 0-13.637 6.1094-13.637 13.637v109.09c0 7.5273 6.1094 13.637 13.637 13.637 7.5273 0 13.637-6.1094 13.637-13.637v-109.09c0-7.5391-6.1094-13.637-13.637-13.637z"/>
  <path d="m453.71 1172.7h-109.09c-7.5273 0-13.637 6.1094-13.637 13.637 0 7.5273 6.1094 13.637 13.637 13.637h109.09c7.5273 0 13.637-6.1094 13.637-13.637-0.003906-7.5273-6.0977-13.637-13.637-13.637z"/>
  <path d="m1022.7 1108.6c-7.5273 0-13.637 6.1094-13.637 13.637v50.469h-9.9258c-7.5273 0-13.637 6.1094-13.637 13.637 0 7.5273 6.1094 13.637 13.637 13.637h23.562c7.5273 0 13.637-6.1094 13.637-13.637v-64.105c0-7.5391-6.1094-13.637-13.637-13.637z"/>
  <path d="m1022.7 890.44c-7.5273 0-13.637 6.1094-13.637 13.637v109.09c0 7.5273 6.1094 13.637 13.637 13.637 7.5273 0 13.637-6.1094 13.637-13.637v-109.09c0-7.543-6.1094-13.637-13.637-13.637z"/>
  <path d="m1032.4 268.73s-0.20313-0.20312-0.54688-0.54688c-0.33984-0.33984-0.84375-0.84375-1.4609-1.4609-0.60156-0.60156-1.2969-1.2969-2.0586-2.0586-0.76172-0.76172-1.5547-1.5547-2.3594-2.3594-0.80469-0.80469-1.6094-1.6094-2.3594-2.3594l-4.0664-4.0664c-2.6602-2.6602-6.1484-3.9961-9.6406-3.9961s-6.9805 1.3359-9.6406 3.9961c-0.94141 0.94141-1.5 2.0742-2.1133 3.1758l-36.758 0.007812v27.273h47.727v72.258c0 7.5273 6.1094 13.637 13.637 13.637 7.5273 0 13.637-6.1094 13.637-13.637v-80.25c0-3.5859-1.4297-7.0469-3.9961-9.6133z"/>
  <path d="m1022.7 454.08c-7.5273 0-13.637 6.1094-13.637 13.637v109.09c0 7.5273 6.1094 13.637 13.637 13.637 7.5273 0 13.637-6.1094 13.637-13.637v-109.09c0-7.543-6.1094-13.637-13.637-13.637z"/>
  <path d="m671.89 1172.7h-109.09c-7.5273 0-13.637 6.1094-13.637 13.637 0 7.5273 6.1094 13.637 13.637 13.637h109.09c7.5273 0 13.637-6.1094 13.637-13.637 0-7.5273-6.0938-13.637-13.637-13.637z"/>
  <path d="m553.45 13.637c0-7.5273-6.1094-13.637-13.637-13.637h-109.09c-7.5273 0-13.637 6.1094-13.637 13.637 0 7.5273 6.1094 13.637 13.637 13.637h109.09c7.5273 0 13.637-6.1094 13.637-13.637z"/>
  <path d="m939.09 175.46c-2.1133-2.1133-5.1289-5.1289-8.7422-8.7422-3.6133-3.6133-7.8398-7.8398-12.355-12.355-4.5117-4.5117-9.3398-9.3398-14.168-14.168-4.8281-4.8281-9.6406-9.6406-14.168-14.168-4.5117-4.5117-8.7422-8.7422-12.355-12.355-3.6094-3.6133-6.6211-6.625-8.7383-8.7383-2.1133-2.1133-3.3125-3.3125-3.3125-3.3125-2.6602-2.6602-6.1484-3.9961-9.6406-3.9961-3.4922 0-6.9805 1.3359-9.6406 3.9961-5.332 5.332-5.332 13.965 0 19.281l77.141 77.141c2.6602 2.6602 6.1484 3.9961 9.6406 3.9961 3.4922 0 6.9805-1.3359 9.6406-3.9961 5.332-5.332 5.332-13.965 0-19.281 0.015625 0.011719-1.1992-1.2031-3.3008-3.3008z"/>
  <path d="m890.07 1172.7h-109.09c-7.5273 0-13.637 6.1094-13.637 13.637 0 7.5273 6.1094 13.637 13.637 13.637h109.09c7.5273 0 13.637-6.1094 13.637-13.637 0-7.5273-6.0977-13.637-13.637-13.637z"/>
 </g>
</svg>
